<svg xmlns="http://www.w3.org/2000/svg" viewBox="0 0 128 128"><defs><style>.cls-1{fill:#232323;}.cls-2{fill:#f7941d;}.cls-3{fill:red;}</style></defs><title>favicon</title><g id="bull_only" data-name="bull only"><path class="cls-1" d="M69.2,97.9a13.74,13.74,0,0,1-3.5.93,6,6,0,0,1-1.12,0A2.84,2.84,0,0,1,62,96.73a9,9,0,0,1-.24-3.27,54.73,54.73,0,0,1,1.49-8.14c.3-1.26.62-2.51.82-3.79a2.48,2.48,0,0,0-1.12-2.62A6.18,6.18,0,0,0,60.64,78a10.57,10.57,0,0,0-4.48,0A4.27,4.27,0,0,0,55,78.5a3.57,3.57,0,0,1-2.31.39c-1.27-.16-2.51-.45-3.75-.72a22.87,22.87,0,0,0-5.2-.72c-.19,0-.3,0-.29-.27s0-.25,0-.37q0-16.89,0-33.76c0-.63-.15-.62.64-.73a5.62,5.62,0,0,1,2.87.34,18.65,18.65,0,0,0,7.86,1.22,39.49,39.49,0,0,0,8.74-1.68c1.46-.42,2.9-.92,4.38-1.27a21.82,21.82,0,0,1,4-.53c.37,0,.37,0,.38.37V79.9c0,.09,0,.21-.09.23-.35.07-.38.39-.52.62a11.13,11.13,0,0,0-1.29,3.13,4.14,4.14,0,0,1-1,1.89,10.53,10.53,0,0,0-1.51,2,7.54,7.54,0,0,0-.16,7.79,14.19,14.19,0,0,0,1.24,1.91Z"/><path class="cls-2" d="M106.62,29.14a2.52,2.52,0,0,1-.55,2.21,32.41,32.41,0,0,1-2.85,3c-1.07,1.06-2.16,2.09-3.24,3.14a2.1,2.1,0,0,0-.46.51,6.43,6.43,0,0,0,2,.62,10.86,10.86,0,0,0,6.85-1.12,18,18,0,0,0,5-3.71,22.63,22.63,0,0,0,1.66-1.87c.07-.09.13-.21.25-.26A3.82,3.82,0,0,1,115,35a7.2,7.2,0,0,1-1.1,1.36,26.7,26.7,0,0,1-6.27,4.71c-1,.54-2,1.12-3,1.7-.35.2-.35.22-.08.54,1.28,1.45,2.59,2.86,3.82,4.36a25.87,25.87,0,0,1,2.1,2.8,8.37,8.37,0,0,1,.81,1.61,3.72,3.72,0,0,1-1.69,4.53,6.8,6.8,0,0,1-2.63.79,11.93,11.93,0,0,0-3.55,1.06c-1.16.51-2.31,1.07-3.48,1.57-.93.39-1.9.68-2.83,1.07a24.27,24.27,0,0,0-6.83,4.44,67.63,67.63,0,0,0-5.14,5.3c-.87,1-1.76,2-2.54,3a19.62,19.62,0,0,0-3.7,8.55,18.05,18.05,0,0,0,.63,8.19,22.65,22.65,0,0,0,2.36,5.21,16,16,0,0,1,.85,1.71c.08.16.13.29-.1.37a8.71,8.71,0,0,1-2.4.65,1.82,1.82,0,0,1-1.91-1.14,9.34,9.34,0,0,1-.64-2.13,63,63,0,0,0-2.33-8.88c-.5-1.4-1.08-2.77-1.67-4.14a2.15,2.15,0,0,1-.18-.87q0-20.23,0-40.46v-.1c0-.47,0-.48.48-.46a56.54,56.54,0,0,1,5.81.56,29.38,29.38,0,0,0,4.47.57A17.24,17.24,0,0,0,93,39.26a9.37,9.37,0,0,0,2.58-2.11,14.17,14.17,0,0,1,2.64-2.37c2.66-1.85,5.36-3.65,8-5.46C106.33,29.24,106.43,29.12,106.62,29.14Z"/><path class="cls-3" d="M42.21,42.67V77a1.61,1.61,0,0,0,0,.22c0,.27-.08.38-.35.46a8,8,0,0,0-5.61,6.47A8.32,8.32,0,0,0,36.42,88c.27,1,.44,2.08.67,3.12a10.77,10.77,0,0,0,.31,1.07,4.71,4.71,0,0,0,1.82,2.48c.7.51,1.46.92,2.2,1.38a6.12,6.12,0,0,1,1,.7A8.43,8.43,0,0,1,39,98.3a4.73,4.73,0,0,1-5.4-3.13,26.16,26.16,0,0,1-.79-2.75c-.79-2.94-1.51-5.9-2.13-8.88A7.07,7.07,0,0,1,30.75,80c.2-.71.37-1.44.55-2.16a1,1,0,0,0,.05-.52c-.15,0-.23.06-.33.12l-1.48.94a13.12,13.12,0,0,0-5.95,8.4,23.87,23.87,0,0,0-.6,5,4.66,4.66,0,0,0,.43,1.9c.28.68.63,1.31,1,1.95s.7,1.35,1,2c.08.15.21.3.15.5l-3.29.56h-.15a1.41,1.41,0,0,1-1.62-.8A11.44,11.44,0,0,1,19,93.3a50.82,50.82,0,0,1,.19-9.71,31.48,31.48,0,0,1,1-5.54,13.61,13.61,0,0,1,1.05-2.6,27.62,27.62,0,0,0,2.21-5,12.48,12.48,0,0,0,.28-6.5,14.3,14.3,0,0,1-.28-4c.06-1.06.1-2.12.15-3.18,0-.2,0-.39,0-.69-.54.37-1.1.56-1.38,1.16q-1.05,2.17-2.13,4.34a21.48,21.48,0,0,1-1.11,2,16.16,16.16,0,0,0-2.28,6.18c-.32,1.89-.45,3.8-.62,5.71a21,21,0,0,1-1.38,6.3,11.15,11.15,0,0,0-.4,1.15c-.07.25-.2.29-.43.22l-.61-.16c-.75-.19-.74-.19-.68-1,.14-1.92.27-3.85.41-5.78a66.13,66.13,0,0,1,1-8.06A7.89,7.89,0,0,1,15,65.46c.45-.73,1-1.42,1.45-2.11a27.34,27.34,0,0,0,1.78-2.82Q21.41,54.79,24.45,49a11.89,11.89,0,0,1,.86-1.46,5.85,5.85,0,0,1,4.11-2.37c3.12-.48,6.2-1.15,9.29-1.76Z"/></g></svg>